<svg width="32" height="42" viewBox="0 0 32 42" fill="none" xmlns="http://www.w3.org/2000/svg">
<path fill-rule="evenodd" clip-rule="evenodd" d="M20.3634 0.812408C20.9397 1.05778 21.3138 1.62364 21.3138 2.25004V16.8296H29.5013C30.0569 16.8296 30.5708 17.1247 30.8508 17.6046C31.1309 18.0845 31.135 18.677 30.8617 19.1608L29.8365 20.975C25.9488 27.8556 20.9907 34.0735 15.1483 39.3954L13.491 40.9051C13.0336 41.3218 12.3734 41.4293 11.8074 41.1793C11.2414 40.9293 10.8763 40.3688 10.8763 39.75V25.2941H2.41797C1.55502 25.2941 0.855469 24.5945 0.855469 23.7316C0.855469 23.4521 0.928855 23.1897 1.05741 22.9627C4.72156 16.1889 9.41276 10.0233 14.9643 4.68534L18.6683 1.12374C19.1199 0.689573 19.787 0.567033 20.3634 0.812408ZM5.09417 22.1691H12.4388C13.3017 22.1691 14.0013 22.8686 14.0013 23.7316V36.197C19.0401 31.4354 23.359 25.9639 26.8209 19.9546H19.7513C18.8884 19.9546 18.1888 19.255 18.1888 18.3921V5.92007L17.1302 6.93795C12.4411 11.4467 8.39259 16.5717 5.09417 22.1691Z" fill="#10BB87"/>
</svg>
