<svg width="46" height="31" viewBox="0 0 46 31" fill="none" xmlns="http://www.w3.org/2000/svg">
<path fill-rule="evenodd" clip-rule="evenodd" d="M29.3136 12.8118C29.9238 13.422 29.9238 14.4113 29.3136 15.0215L22.0219 22.3132C21.4117 22.9234 20.4224 22.9234 19.8122 22.3132L15.6455 18.1465C15.0353 17.5363 15.0353 16.547 15.6455 15.9368C16.2557 15.3266 17.245 15.3266 17.8552 15.9368L20.917 18.9986L27.1039 12.8118C27.7141 12.2016 28.7034 12.2016 29.3136 12.8118Z" fill="#10BB87"/>
<path fill-rule="evenodd" clip-rule="evenodd" d="M24.9418 3.93396C21.712 3.93396 18.9182 5.81381 17.6006 8.54605C17.2464 9.28066 16.3867 9.61923 15.6266 9.32348C14.6042 8.92566 13.4908 8.70663 12.3225 8.70663C7.28815 8.70663 3.20703 12.7877 3.20703 17.822C3.20703 22.8564 7.28815 26.9375 12.3225 26.9375H36.5905C40.0164 26.9375 42.7937 24.1602 42.7937 20.7342C42.7937 17.3082 40.0164 14.5309 36.5905 14.5309C36.033 14.5309 35.495 14.6041 34.9845 14.7404C34.4841 14.8741 33.95 14.7511 33.5584 14.412C33.1669 14.0728 32.9688 13.5617 33.0297 13.0473C33.0672 12.7303 33.0865 12.4071 33.0865 12.0787C33.0865 7.58047 29.44 3.93396 24.9418 3.93396ZM15.4587 5.98752C17.4624 2.87441 20.9597 0.80896 24.9418 0.80896C30.9429 0.80896 35.8484 5.49947 36.1923 11.4143C36.3244 11.4088 36.4571 11.4059 36.5905 11.4059C41.7423 11.4059 45.9187 15.5824 45.9187 20.7342C45.9187 25.8861 41.7423 30.0625 36.5905 30.0625H12.3225C5.56226 30.0625 0.0820312 24.5822 0.0820312 17.822C0.0820312 11.0619 5.56226 5.58163 12.3225 5.58163C13.4051 5.58163 14.4566 5.72255 15.4587 5.98752Z" fill="#10BB87"/>
</svg>
