<svg width="20" height="20" viewBox="0 0 20 20" fill="none" xmlns="http://www.w3.org/2000/svg">
<path d="M13.1263 10.8333C13.1263 10.4882 12.8465 10.2083 12.5013 10.2083H7.5013C7.15612 10.2083 6.8763 10.4882 6.8763 10.8333C6.8763 11.1785 7.15612 11.4583 7.5013 11.4583H12.5013C12.8465 11.4583 13.1263 11.1785 13.1263 10.8333Z" fill="#487B6C"/>
<path d="M13.1263 14.1667C13.1263 13.8215 12.8465 13.5417 12.5013 13.5417H7.5013C7.15612 13.5417 6.8763 13.8215 6.8763 14.1667C6.8763 14.5118 7.15612 14.7917 7.5013 14.7917H12.5013C12.8465 14.7917 13.1263 14.5118 13.1263 14.1667Z" fill="#487B6C"/>
<path fill-rule="evenodd" clip-rule="evenodd" d="M5.83464 1.875C4.56898 1.875 3.54297 2.90101 3.54297 4.16667V15.8333C3.54297 17.099 4.56898 18.125 5.83464 18.125H14.168C15.4336 18.125 16.4596 17.099 16.4596 15.8333V6.63971C16.4596 6.32241 16.3561 6.01375 16.1649 5.76058L13.6667 2.4542C13.3911 2.08941 12.9604 1.875 12.5031 1.875H5.83464ZM4.79297 4.16667C4.79297 3.59137 5.25934 3.125 5.83464 3.125H11.8763V6.7892C11.8763 7.13438 12.1561 7.4142 12.5013 7.4142H15.2096V15.8333C15.2096 16.4086 14.7433 16.875 14.168 16.875H5.83464C5.25934 16.875 4.79297 16.4086 4.79297 15.8333V4.16667Z" fill="#487B6C"/>
</svg>
