<svg width="20" height="20" viewBox="0 0 20 20" fill="none" xmlns="http://www.w3.org/2000/svg">
<path fill-rule="evenodd" clip-rule="evenodd" d="M8.73844 3.15641C9.55891 2.33594 10.6717 1.875 11.832 1.875H14.082C14.4272 1.875 14.707 2.15482 14.707 2.5V5.5C14.707 5.84518 14.4272 6.125 14.082 6.125H11.832C11.7989 6.125 11.7671 6.13817 11.7436 6.16161C11.7202 6.18505 11.707 6.21685 11.707 6.25V7.875H14.082C14.2745 7.875 14.4562 7.96367 14.5747 8.11537C14.6931 8.26706 14.735 8.46487 14.6884 8.65158L13.9384 11.6516C13.8688 11.9298 13.6188 12.125 13.332 12.125H11.707V17.5C11.707 17.8452 11.4272 18.125 11.082 18.125H8.08203C7.73685 18.125 7.45703 17.8452 7.45703 17.5V12.125H5.83203C5.48685 12.125 5.20703 11.8452 5.20703 11.5V8.5C5.20703 8.15482 5.48685 7.875 5.83203 7.875H7.45703V6.25C7.45703 5.08968 7.91797 3.97688 8.73844 3.15641ZM11.832 3.125C11.0032 3.125 10.2084 3.45424 9.62232 4.04029C9.03627 4.62634 8.70703 5.4212 8.70703 6.25V8.5C8.70703 8.84518 8.42721 9.125 8.08203 9.125H6.45703V10.875H8.08203C8.42721 10.875 8.70703 11.1548 8.70703 11.5V16.875H10.457V11.5C10.457 11.1548 10.7369 10.875 11.082 10.875H12.844L13.2815 9.125H11.082C10.7369 9.125 10.457 8.84518 10.457 8.5V6.25C10.457 5.88533 10.6019 5.53559 10.8598 5.27773C11.1176 5.01987 11.4674 4.875 11.832 4.875H13.457V3.125H11.832Z" fill="#487B6C"/>
</svg>
