<svg width="20" height="20" viewBox="0 0 20 20" fill="none" xmlns="http://www.w3.org/2000/svg">
<path d="M13.3345 5.83329C13.3345 5.37305 13.7076 4.99996 14.1679 4.99996C14.6281 4.99996 15.0012 5.37305 15.0012 5.83329C15.0012 6.29353 14.6281 6.66662 14.1679 6.66662C13.7076 6.66662 13.3345 6.29353 13.3345 5.83329Z" fill="#487B6C"/>
<path fill-rule="evenodd" clip-rule="evenodd" d="M10.0012 6.04162C7.81508 6.04162 6.04288 7.81383 6.04288 9.99996C6.04288 12.1861 7.81508 13.9583 10.0012 13.9583C12.1873 13.9583 13.9595 12.1861 13.9595 9.99996C13.9595 7.81383 12.1873 6.04162 10.0012 6.04162ZM7.29288 9.99996C7.29288 8.50419 8.50544 7.29162 10.0012 7.29162C11.497 7.29162 12.7095 8.50419 12.7095 9.99996C12.7095 11.4957 11.497 12.7083 10.0012 12.7083C8.50544 12.7083 7.29288 11.4957 7.29288 9.99996Z" fill="#487B6C"/>
<path fill-rule="evenodd" clip-rule="evenodd" d="M14.3831 2.3608C11.4943 2.03794 8.50816 2.03794 5.61935 2.3608C3.94264 2.5482 2.58903 3.86904 2.3919 5.55448C2.04645 8.50807 2.04645 11.4918 2.3919 14.4454C2.58903 16.1309 3.94264 17.4517 5.61935 17.6391C8.50817 17.962 11.4943 17.962 14.3831 17.6391C16.0598 17.4517 17.4134 16.1309 17.6105 14.4454C17.956 11.4918 17.956 8.50806 17.6105 5.55448C17.4134 3.86904 16.0598 2.5482 14.3831 2.3608ZM5.75819 3.60307C8.55473 3.29051 11.4477 3.29051 14.2442 3.60307C15.3527 3.72695 16.2406 4.60163 16.369 5.69969C16.7032 8.5568 16.7032 11.4431 16.369 14.3002C16.2406 15.3983 15.3527 16.273 14.2442 16.3968C11.4477 16.7094 8.55473 16.7094 5.75819 16.3968C4.64977 16.273 3.76186 15.3983 3.63344 14.3002C3.29927 11.4431 3.29927 8.5568 3.63344 5.69969C3.76186 4.60163 4.64977 3.72695 5.75819 3.60307Z" fill="#487B6C"/>
</svg>
