<svg width="17" height="12" viewBox="0 0 17 12" fill="none" xmlns="http://www.w3.org/2000/svg">
<path fill-rule="evenodd" clip-rule="evenodd" d="M16.25 6C16.25 5.58579 15.9142 5.25 15.5 5.25H1.5C1.08579 5.25 0.75 5.58579 0.75 6C0.75 6.41421 1.08579 6.75 1.5 6.75H15.5C15.9142 6.75 16.25 6.41421 16.25 6Z" fill="black"/>
<path fill-rule="evenodd" clip-rule="evenodd" d="M16.25 1C16.25 0.585786 15.9142 0.25 15.5 0.25H1.5C1.08579 0.25 0.75 0.585786 0.75 1C0.75 1.41421 1.08579 1.75 1.5 1.75H15.5C15.9142 1.75 16.25 1.41421 16.25 1Z" fill="black"/>
<path fill-rule="evenodd" clip-rule="evenodd" d="M16.25 11C16.25 10.5858 15.9142 10.25 15.5 10.25H1.5C1.08579 10.25 0.75 10.5858 0.75 11C0.75 11.4142 1.08579 11.75 1.5 11.75H15.5C15.9142 11.75 16.25 11.4142 16.25 11Z" fill="black"/>
</svg>
