<svg width="38" height="36" viewBox="0 0 38 36" fill="none" xmlns="http://www.w3.org/2000/svg">
<path fill-rule="evenodd" clip-rule="evenodd" d="M29.9135 0.0198975H31.4987C34.6628 0.0198975 37.2279 2.58493 37.2279 5.74906V9.91573C37.2279 11.5911 36.0979 13.0025 34.5585 13.4293C34.8586 17.2347 34.6848 27.2923 34.0393 31.0591C33.6539 33.3084 31.8271 35.0315 29.5591 35.285L27.654 35.4979C21.9017 36.1408 16.0957 36.1408 10.3435 35.4979L8.4383 35.285C6.17034 35.0315 4.34354 33.3084 3.95811 31.0591C3.31263 27.2923 3.13878 17.2347 3.43892 13.4293C1.89953 13.0025 0.769531 11.5911 0.769531 9.91573V5.74906C0.769531 2.58493 3.33457 0.0198975 6.4987 0.0198975H8.08392H13.7904H24.207H29.9135ZM3.89453 5.74906C3.89453 4.31082 5.06046 3.1449 6.4987 3.1449H17.4362H20.5612H31.4987C32.9369 3.1449 34.1029 4.31082 34.1029 5.74906V9.91573C34.1029 10.2034 33.8697 10.4366 33.582 10.4366H20.5612H17.4362H4.41536C4.12772 10.4366 3.89453 10.2034 3.89453 9.91573V5.74906ZM20.5612 13.5616H31.4341C31.7263 17.1461 31.5673 26.9826 30.9592 30.5313C30.8089 31.4085 30.0965 32.0805 29.212 32.1793L27.3069 32.3923C25.0645 32.6429 22.8136 32.7917 20.5612 32.8388V13.5616ZM17.4362 13.5616V32.8388C15.1837 32.7917 12.9329 32.6429 10.6906 32.3923L8.7854 32.1793C7.90094 32.0805 7.18852 31.4085 7.03821 30.5313C6.43011 26.9826 6.27106 17.1461 6.56335 13.5616H17.4362Z" fill="#10BB87"/>
</svg>
