<svg width="18" height="18" viewBox="0 0 18 18" fill="none" xmlns="http://www.w3.org/2000/svg">
<path fill-rule="evenodd" clip-rule="evenodd" d="M2.34194 6.85617C4.12925 10.7481 7.30974 13.8422 11.2635 15.5188L11.276 15.5241L12.0398 15.8646C13.0124 16.2979 14.1557 15.9901 14.7793 15.1271L16.0536 13.3633C16.1315 13.2556 16.1114 13.1058 16.008 13.0223L13.7832 11.2275C13.6726 11.1383 13.51 11.1591 13.4254 11.2732L12.5595 12.4416C12.3492 12.7254 11.9695 12.824 11.6477 12.6784C8.69133 11.3404 6.31562 8.96473 4.97769 6.00832C4.83208 5.68656 4.93067 5.30681 5.21442 5.09653L6.3828 4.23067C6.49697 4.14606 6.51775 3.98343 6.42853 3.87284L4.63348 1.6478C4.55006 1.54438 4.40031 1.52429 4.29258 1.60207L2.51928 2.88222C1.6505 3.50941 1.34454 4.66226 1.788 5.63771L2.34134 6.85487C2.34154 6.8553 2.34174 6.85574 2.34194 6.85617ZM10.6716 16.8971C6.37557 15.0735 2.92021 11.7105 0.978161 7.48076L0.976991 7.47821L0.422489 6.2585C-0.316611 4.63275 0.193317 2.71134 1.6413 1.66603L3.41459 0.385867C4.16871 -0.158539 5.21694 -0.0179346 5.80094 0.705959L7.59598 2.931C8.22054 3.70517 8.07507 4.84357 7.27591 5.43581L6.6064 5.93196C7.73732 8.12636 9.5297 9.91874 11.7241 11.0497L12.2203 10.3801C12.8125 9.58098 13.9509 9.43552 14.7251 10.0601L16.9498 11.8549C17.6739 12.439 17.8143 13.4877 17.2695 14.2418L15.9951 16.0055C14.9558 17.444 13.0504 17.957 11.4293 17.2347L10.6716 16.8971Z" fill="black"/>
</svg>
