<svg width="38" height="38" viewBox="0 0 38 38" fill="none" xmlns="http://www.w3.org/2000/svg">
<path d="M8.29997 8.33828C11.0365 5.59237 14.818 3.89587 18.9987 3.89587C27.3405 3.89587 34.1029 10.6582 34.1029 19C34.1029 27.3418 27.3405 34.1042 18.9987 34.1042C10.6569 34.1042 3.89453 27.3418 3.89453 19C3.89453 18.1371 3.19498 17.4375 2.33203 17.4375C1.46909 17.4375 0.769531 18.1371 0.769531 19C0.769531 29.0677 8.93101 37.2292 18.9987 37.2292C29.0664 37.2292 37.2279 29.0677 37.2279 19C37.2279 8.93235 29.0664 0.770874 18.9987 0.770874C13.9539 0.770874 9.38531 2.82217 6.08647 6.13237C6.03345 6.18558 5.98506 6.24164 5.94129 6.30007L3.32136 3.68014C3.03556 3.39433 2.61022 3.29966 2.23018 3.43726C1.85014 3.57485 1.58399 3.91987 1.5474 4.3224L0.810831 12.4247C0.782842 12.7325 0.893051 13.0369 1.11165 13.2555C1.33025 13.4741 1.63465 13.5843 1.94253 13.5564L10.0448 12.8198C10.4473 12.7832 10.7923 12.5171 10.9299 12.137C11.0675 11.757 10.9729 11.3316 10.6871 11.0458L8.12848 8.48726C8.18831 8.44245 8.24565 8.39279 8.29997 8.33828Z" fill="#10BB87"/>
<path d="M20.5612 8.58337C20.5612 7.72043 19.8616 7.02087 18.9987 7.02087C18.1358 7.02087 17.4362 7.72043 17.4362 8.58337V19C17.4362 19.5388 17.7137 20.0395 18.1706 20.325L24.4206 24.2313C25.1523 24.6886 26.1163 24.4662 26.5737 23.7344C27.0311 23.0026 26.8086 22.0387 26.0768 21.5813L20.5612 18.134V8.58337Z" fill="#10BB87"/>
</svg>
