<svg width="20" height="20" viewBox="0 0 20 20" fill="none" xmlns="http://www.w3.org/2000/svg">
<path fill-rule="evenodd" clip-rule="evenodd" d="M6.45964 6.25016C6.45964 4.29415 8.04529 2.7085 10.0013 2.7085C11.9573 2.7085 13.543 4.29415 13.543 6.25016C13.543 8.20617 11.9573 9.79183 10.0013 9.79183C8.04529 9.79183 6.45964 8.20617 6.45964 6.25016ZM10.0013 3.9585C8.73565 3.9585 7.70964 4.98451 7.70964 6.25016C7.70964 7.51581 8.73565 8.54183 10.0013 8.54183C11.267 8.54183 12.293 7.51581 12.293 6.25016C12.293 4.98451 11.267 3.9585 10.0013 3.9585Z" fill="#487B6C"/>
<path fill-rule="evenodd" clip-rule="evenodd" d="M6.66797 12.2918C5.63244 12.2918 4.79297 13.1313 4.79297 14.1668V15.1571C4.79297 15.1721 4.8039 15.185 4.81878 15.1874C8.25107 15.7478 11.7515 15.7478 15.1838 15.1874C15.1987 15.185 15.2096 15.1721 15.2096 15.1571V14.1668C15.2096 13.1313 14.3702 12.2918 13.3346 12.2918H13.0506C13.0286 12.2918 13.0068 12.2953 12.9859 12.3021L12.2646 12.5376C10.794 13.0179 9.20864 13.0179 7.73796 12.5376L7.01669 12.3021C6.99582 12.2953 6.97399 12.2918 6.95203 12.2918H6.66797ZM3.54297 14.1668C3.54297 12.4409 4.94208 11.0418 6.66797 11.0418H6.95203C7.10577 11.0418 7.25855 11.0661 7.4047 11.1139L8.12596 11.3494C9.34453 11.7473 10.6581 11.7473 11.8766 11.3494L12.5979 11.1139C12.7441 11.0661 12.8968 11.0418 13.0506 11.0418H13.3346C15.0605 11.0418 16.4596 12.4409 16.4596 14.1668V15.1571C16.4596 15.7848 16.0047 16.32 15.3852 16.4211C11.8196 17.0032 8.18305 17.0032 4.61736 16.4211C3.99787 16.32 3.54297 15.7848 3.54297 15.1571V14.1668Z" fill="#487B6C"/>
</svg>
