<svg width="20" height="20" viewBox="0 0 20 20" fill="none" xmlns="http://www.w3.org/2000/svg">
<path fill-rule="evenodd" clip-rule="evenodd" d="M8.65516 6.96417C8.46208 6.84833 8.2216 6.84529 8.02566 6.95623C7.82972 7.06717 7.7086 7.27494 7.7086 7.50011V12.5001C7.7086 12.7253 7.82972 12.933 8.02566 13.044C8.2216 13.1549 8.46208 13.1519 8.65516 13.036L12.8218 10.536C13.0101 10.4231 13.1253 10.2196 13.1253 10.0001C13.1253 9.78057 13.0101 9.57713 12.8218 9.46417L8.65516 6.96417ZM11.2855 10.0001L8.9586 11.3962V8.60398L11.2855 10.0001Z" fill="#487B6C"/>
<path fill-rule="evenodd" clip-rule="evenodd" d="M14.1925 3.86784C11.402 3.64952 8.59863 3.64952 5.80808 3.86784L3.94083 4.01393C2.80536 4.10276 1.87646 4.95376 1.68876 6.07713C1.25479 8.67444 1.25479 11.3258 1.68876 13.9231C1.87646 15.0464 2.80536 15.8975 3.94083 15.9863L5.80808 16.1324C8.59862 16.3507 11.402 16.3507 14.1925 16.1324L16.0597 15.9863C17.1952 15.8975 18.1241 15.0464 18.3118 13.9231C18.7458 11.3258 18.7458 8.67444 18.3118 6.07713C18.1241 4.95376 17.1952 4.10276 16.0597 4.01393L14.1925 3.86784ZM5.90558 5.11403C8.63123 4.90079 11.3694 4.90079 14.095 5.11403L15.9622 5.26012C16.5253 5.30417 16.9858 5.72612 17.0789 6.28313C17.4901 8.74406 17.4901 11.2562 17.0789 13.7171C16.9858 14.2741 16.5253 14.696 15.9622 14.7401L14.095 14.8862C11.3694 15.0994 8.63122 15.0994 5.90558 14.8862L4.03833 14.7401C3.47532 14.696 3.01474 14.2741 2.92167 13.7171C2.51049 11.2562 2.51049 8.74406 2.92167 6.28313C3.01474 5.72612 3.47532 5.30417 4.03833 5.26012L5.90558 5.11403Z" fill="#487B6C"/>
</svg>
